<svg xmlns="http://www.w3.org/2000/svg" width="1460" height="400" viewBox="0 0 1460 400"><rect width="100%" height="100%" fill="#DDDDDD"/><path fill="#999999" d="M354.525 245.995h22.23v15.82h-68.4v-15.82h25.05v-72.07q0-4.28.26-8.81l-17.79 14.88q-1.54 1.19-3.03 1.49-1.5.3-2.82.05-1.33-.26-2.35-.9-1.03-.64-1.54-1.41l-6.67-9.15 37.7-32.06h17.36v107.98Zm56.17-30.78h37.62v-40.44q0-5.73.77-12.65l-38.39 53.09Zm56.01 0h15.56v12.23q0 1.71-1.11 2.95-1.12 1.24-3.17 1.24h-11.28v30.18h-18.39v-30.18h-52.15q-2.14 0-3.76-1.33-1.63-1.32-2.06-3.29l-2.22-10.69 58.57-78.23h20.01v77.12Zm101.23-77.03-36.68 44.88-4.28 5.31q3.59-1.8 7.74-2.78 4.15-.99 8.94-.99 7.01 0 13.63 2.31 6.63 2.31 11.67 6.97 5.05 4.66 8.13 11.59 3.07 6.92 3.07 16.15 0 8.64-3.16 16.21-3.16 7.56-8.89 13.21-5.73 5.64-13.81 8.89-8.08 3.25-17.83 3.25-9.91 0-17.78-3.17-7.87-3.16-13.42-8.84-5.56-5.69-8.51-13.68-2.95-8-2.95-17.75 0-8.72 3.55-17.91t10.98-19.11l29.5-39.58q1.54-2.06 4.49-3.51 2.95-1.45 6.8-1.45h18.81Zm-31.89 107.73q5.04 0 9.27-1.71 4.23-1.71 7.27-4.79 3.04-3.08 4.75-7.23 1.71-4.14 1.71-9.02 0-5.3-1.63-9.53-1.62-4.23-4.62-7.18-2.99-2.95-7.18-4.49-4.19-1.54-9.23-1.54-5.05 0-9.15 1.71-4.1 1.71-7.01 4.75-2.91 3.03-4.53 7.18-1.63 4.14-1.63 8.93 0 5.13 1.41 9.37 1.41 4.23 4.19 7.22 2.78 2.99 6.89 4.66 4.1 1.67 9.49 1.67Zm144.66-45.92q0 16.16-3.46 28.09t-9.58 19.71q-6.11 7.78-14.45 11.58-8.33 3.81-17.99 3.81-9.67 0-17.92-3.81-8.25-3.8-14.32-11.58t-9.49-19.71q-3.42-11.93-3.42-28.09 0-16.24 3.42-28.13 3.42-11.88 9.49-19.66 6.07-7.78 14.32-11.59 8.25-3.8 17.92-3.8 9.66 0 17.99 3.8 8.34 3.81 14.45 11.59 6.12 7.78 9.58 19.66 3.46 11.89 3.46 28.13Zm-21.8 0q0-13.42-1.97-22.23-1.96-8.8-5.26-14.02-3.29-5.21-7.56-7.31-4.28-2.09-8.89-2.09-4.54 0-8.77 2.09-4.23 2.1-7.48 7.31-3.25 5.22-5.17 14.02-1.93 8.81-1.93 22.23 0 13.43 1.93 22.23 1.92 8.81 5.17 14.03 3.25 5.21 7.48 7.31 4.23 2.09 8.77 2.09 4.61 0 8.89-2.09 4.27-2.1 7.56-7.31 3.3-5.22 5.26-14.03 1.97-8.8 1.97-22.23Zm157.58 33.52-11.2 11.03-28.99-28.99-29.24 29.16-11.2-11.03 29.24-29.33-27.87-27.87 11.11-11.11 27.88 27.87 27.7-27.7 11.28 11.11-27.78 27.79 29.07 29.07Zm74.04-18.3h37.62v-40.44q0-5.73.77-12.65l-38.39 53.09Zm56 0h15.56v12.23q0 1.71-1.11 2.95-1.11 1.24-3.16 1.24h-11.29v30.18h-18.38v-30.18h-52.16q-2.13 0-3.76-1.33-1.62-1.32-2.05-3.29l-2.22-10.69 58.56-78.23h20.01v77.12Zm114.83-15.22q0 16.16-3.46 28.09-3.47 11.93-9.58 19.71-6.11 7.78-14.45 11.58-8.34 3.81-18 3.81t-17.91-3.81q-8.25-3.8-14.32-11.58t-9.49-19.71q-3.42-11.93-3.42-28.09 0-16.24 3.42-28.13 3.42-11.88 9.49-19.66 6.07-7.78 14.32-11.59 8.25-3.8 17.91-3.8t18 3.8q8.34 3.81 14.45 11.59 6.11 7.78 9.58 19.66 3.46 11.89 3.46 28.13Zm-21.8 0q0-13.42-1.97-22.23-1.97-8.8-5.26-14.02-3.29-5.21-7.57-7.31-4.27-2.09-8.89-2.09-4.53 0-8.76 2.09-4.23 2.1-7.48 7.31-3.25 5.22-5.18 14.02-1.92 8.81-1.92 22.23 0 13.43 1.92 22.23 1.93 8.81 5.18 14.03 3.25 5.21 7.48 7.31 4.23 2.09 8.76 2.09 4.62 0 8.89-2.09 4.28-2.1 7.57-7.31 3.29-5.22 5.26-14.03 1.97-8.8 1.97-22.23Zm120.98 0q0 16.16-3.46 28.09-3.47 11.93-9.58 19.71-6.11 7.78-14.45 11.58-8.34 3.81-18 3.81t-17.91-3.81q-8.25-3.8-14.32-11.58t-9.49-19.71q-3.42-11.93-3.42-28.09 0-16.24 3.42-28.13 3.42-11.88 9.49-19.66 6.07-7.78 14.32-11.59 8.25-3.8 17.91-3.8t18 3.8q8.34 3.81 14.45 11.59 6.11 7.78 9.58 19.66 3.46 11.89 3.46 28.13Zm-21.8 0q0-13.42-1.97-22.23-1.97-8.8-5.26-14.02-3.29-5.21-7.57-7.31-4.27-2.09-8.89-2.09-4.53 0-8.76 2.09-4.23 2.1-7.48 7.31-3.25 5.22-5.18 14.02-1.92 8.81-1.92 22.23 0 13.43 1.92 22.23 1.93 8.81 5.18 14.03 3.25 5.21 7.48 7.31 4.23 2.09 8.76 2.09 4.62 0 8.89-2.09 4.28-2.1 7.57-7.31 3.29-5.22 5.26-14.03 1.97-8.8 1.97-22.23Z"/></svg>